# xmcd
#
# Track frame offsets:
#	150
#	20295
#	45023
#	65133
#	89548
#	110877
#	126661
#	152776
#	174850
#	191853
#	212611
#	232233
#	256488
#
# Disc length: 3728 seconds
#
# Revision: 0
# Processed by: cddbd v1.5.1PL0 Copyright (c) Steve Scherf et al.
# Submitted via: dBpowerAMP V4.0
#
DISCID=bd0e8e0d
DTITLE=Various Artist - Inspired By The Word
DYEAR=2005
DGENRE=Gospel
TTITLE0=Be Not Decieved - Jeremiah
TTITLE1=Follow The Star - Jeremiah
TTITLE2=Share Your Gift - 
TTITLE3=The Call of Love - 
TTITLE4=The Clay That I Am - 
TTITLE5=The Fire Won't Go Out - 
TTITLE6=What will Your Answer Be? - 
TTITLE7=Where You Lead - 
TTITLE8=The world To Come - 
TTITLE9=What Would Jesus Do? - 
TTITLE10=You Are The Blessed - 
TTITLE11=You Cried - 
TTITLE12=Jesus Showed Us How - 
EXTD=For your listening pleasure.
EXTT0=
EXTT1=
EXTT2=
EXTT3=
EXTT4=
EXTT5=
EXTT6=
EXTT7=
EXTT8=
EXTT9=
EXTT10=
EXTT11=
EXTT12=
PLAYORDER=
